<svg width="48" height="48" viewBox="0 0 48 48" fill="none" xmlns="http://www.w3.org/2000/svg">
<path fill-rule="evenodd" clip-rule="evenodd" d="M35.9279 15.9927C38.0917 15.7812 37.3322 18.3722 36.2308 19.5066C35.8814 20.5347 36.2046 21.6916 36.2406 22.4479C36.2766 23.2041 36.7058 23.4321 36.6759 23.9257C41.0336 19.1408 41.7512 15.756 40.3263 14.1296C38.8887 12.4884 35.7809 13.0006 33.1207 13.8354C31.7819 14.2554 30.5565 14.7573 29.7143 15.1075C23.2697 17.7873 15.4485 22.6854 10.3272 28.3972C8.44718 30.4941 6.93091 32.7007 5.98047 34.9475C7.41328 33.0341 9.07864 31.2328 10.8819 29.5591C18.9076 22.1099 29.6661 17.1876 34.8324 16.1606C35.2323 16.081 35.5989 16.025 35.9279 15.9928L35.9279 15.9927Z" fill="white"/>
<path d="M13.1982 30.7529C13.1982 30.7529 9.77638 33.5334 12.3083 36.2859C14.8402 39.0384 19.6493 38.3676 24.2672 35.0818L20.7671 34.7405C20.7671 34.7405 18.0244 36.2474 15.6329 35.7906C13.368 35.358 12.7356 33.702 14.8316 32.1112" fill="white"/>
<path fill-rule="evenodd" clip-rule="evenodd" d="M36.3761 19.6569C36.1147 18.6839 35.7499 17.7555 35.2944 16.8833C30.0938 17.9493 19.4145 22.857 11.4355 30.263L11.375 30.3192C13.897 34.4905 18.5666 37.1827 23.7773 36.9348C30.8415 36.5986 36.4031 30.9775 36.8213 24.076C36.8512 23.5824 36.8548 23.0822 36.8307 22.577C36.7828 21.5696 36.6273 20.5927 36.3761 19.6569Z" fill="white"/>
<path fill-rule="evenodd" clip-rule="evenodd" d="M30.5362 8.04871C30.2813 7.06749 30.8701 6.06532 31.8513 5.8104C32.8326 5.55549 33.8347 6.14423 34.0896 7.12552C34.3446 8.10674 33.7558 9.10891 32.7745 9.36383C31.7933 9.61874 30.7911 9.02993 30.5362 8.04871Z" fill="white"/>
<path fill-rule="evenodd" clip-rule="evenodd" d="M29.5883 3.89011C29.4608 3.39953 29.7553 2.89845 30.2459 2.77092C30.7365 2.64347 31.2375 2.93784 31.365 3.42848C31.4925 3.91906 31.1981 4.42014 30.7075 4.54767C30.2168 4.67513 29.7158 4.38069 29.5883 3.89011Z" fill="white"/>
<path fill-rule="evenodd" clip-rule="evenodd" d="M35.0234 10.251C34.9315 9.89746 35.1437 9.53638 35.4973 9.44451C35.8508 9.35265 36.2119 9.56478 36.3038 9.91841C36.3956 10.272 36.1834 10.6331 35.8299 10.7249C35.4763 10.8168 35.1152 10.6046 35.0234 10.251Z" fill="white"/>
<path fill-rule="evenodd" clip-rule="evenodd" d="M27.8933 7.23118C27.8273 6.97721 27.9797 6.71782 28.2337 6.65185C28.4877 6.58589 28.7471 6.73823 28.813 6.99226C28.879 7.24623 28.7266 7.50562 28.4726 7.57158C28.2187 7.63755 27.9593 7.48514 27.8933 7.23118Z" fill="white"/>
<path d="M29.2054 25.6879C29.7817 25.6605 30.2259 25.1571 30.1977 24.5635C30.1695 23.9699 29.6795 23.5109 29.1032 23.5383C28.527 23.5657 28.0827 24.0691 28.1109 24.6627C28.1392 25.2563 28.6292 25.7153 29.2054 25.6879Z" fill="#181818"/>
<path d="M25.4864 27.9809C26.0627 27.9535 26.5069 27.45 26.4787 26.8564C26.4505 26.2628 25.9605 25.8038 25.3842 25.8312C24.808 25.8586 24.3637 26.3621 24.3919 26.9557C24.4202 27.5493 24.9102 28.0083 25.4864 27.9809Z" fill="#181818"/>
<path d="M21.7081 30.5068C22.2844 30.4794 22.7286 29.9759 22.7004 29.3823C22.6722 28.7887 22.1821 28.3297 21.6059 28.3571C21.0296 28.3845 20.5854 28.8879 20.6136 29.4816C20.6418 30.0752 21.1319 30.5342 21.7081 30.5068Z" fill="#181818"/>
<mask id="mask0_620_98" style="mask-type:luminance" maskUnits="userSpaceOnUse" x="5" y="12" width="37" height="23">
<g opacity="0.6">
<path fill-rule="evenodd" clip-rule="evenodd" d="M41.817 33.1663L6.01588 34.8698L5.04395 14.4425L40.8451 12.739L41.817 33.1663Z" fill="url(#paint0_linear_620_98)"/>
</g>
</mask>
<g mask="url(#mask0_620_98)">
<path opacity="0.6" fill-rule="evenodd" clip-rule="evenodd" d="M40.921 14.9894C40.8097 14.6174 40.6309 14.2934 40.3908 14.0195C38.9531 12.3783 35.8454 12.8905 33.1852 13.7253C31.8463 14.1453 30.621 14.6472 29.7788 14.9974C23.3341 17.6772 15.5129 22.5753 10.3917 28.2871C8.51163 30.384 6.99536 32.5906 6.04492 34.8374C13.692 21.8915 36.2009 10.7111 40.921 14.9894Z" fill="#CCCCCB"/>
</g>
<path fill-rule="evenodd" clip-rule="evenodd" d="M10.5629 28.3398C15.6841 22.628 23.5053 17.7299 29.95 15.0501C30.7922 14.6999 32.0176 14.198 33.3564 13.778C30.6981 10.8649 26.8105 9.11374 22.5634 9.31584C14.994 9.67598 9.14979 16.1042 9.50993 23.6736C9.58857 25.3268 9.95664 26.8977 10.5629 28.3398Z" fill="white"/>
<mask id="mask1_620_98" style="mask-type:luminance" maskUnits="userSpaceOnUse" x="9" y="15" width="12" height="14">
<path fill-rule="evenodd" clip-rule="evenodd" d="M20.7977 27.8785L9.70473 28.4063L9.12134 16.1452L20.2144 15.6174L20.7977 27.8785Z" fill="url(#paint1_linear_620_98)"/>
</mask>
<g mask="url(#mask1_620_98)">
<path fill-rule="evenodd" clip-rule="evenodd" d="M10.5632 28.3348C13.2834 25.3008 16.7654 22.4964 20.3983 20.1321C17.9593 17.8997 14.8253 16.4279 11.3829 16.0686C10.0762 18.2895 9.37857 20.9025 9.51016 23.6685C9.5888 25.3217 9.95687 26.8927 10.5632 28.3346L10.5632 28.3348Z" fill="white"/>
</g>
<mask id="mask2_620_98" style="mask-type:luminance" maskUnits="userSpaceOnUse" x="11" y="8" width="23" height="11">
<path fill-rule="evenodd" clip-rule="evenodd" d="M33.5704 17.616L12.271 18.6294L11.8506 9.79467L33.15 8.78125L33.5704 17.616Z" fill="url(#paint2_linear_620_98)"/>
</mask>
<g mask="url(#mask2_620_98)">
<path fill-rule="evenodd" clip-rule="evenodd" d="M23.8443 18.0477C25.9303 16.8719 28.0031 15.8595 29.9501 15.0498C30.7923 14.6997 32.0177 14.1978 33.3566 13.7778C30.6982 10.8647 26.8106 9.1135 22.5635 9.3156C18.2456 9.52102 14.4896 11.7018 12.126 14.942C12.5758 14.8816 13.0315 14.8389 13.4932 14.817C17.3696 14.6325 20.9858 15.8611 23.8443 18.0477Z" fill="white"/>
</g>
<mask id="mask3_620_98" style="mask-type:luminance" maskUnits="userSpaceOnUse" x="9" y="12" width="26" height="17">
<path fill-rule="evenodd" clip-rule="evenodd" d="M34.0288 27.2539L10.4262 28.377L9.73438 13.8362L33.337 12.7131L34.0288 27.2539Z" fill="url(#paint3_linear_620_98)"/>
</mask>
<g mask="url(#mask3_620_98)">
<path fill-rule="evenodd" clip-rule="evenodd" d="M10.5638 28.3395C15.6849 22.6277 23.5062 17.7297 29.9508 15.0499C30.793 14.6997 32.0184 14.1978 33.3573 13.7778C33.0415 13.4318 32.7083 13.1025 32.3593 12.7905C31.331 13.1718 30.3301 13.6105 29.3332 14.0691C22.6313 17.1521 15.2184 22.3422 10.4414 28.0383C10.4811 28.1394 10.5218 28.2397 10.5638 28.3395Z" fill="#DCDBDB"/>
</g>
<defs>
<linearGradient id="paint0_linear_620_98" x1="3.09813" y1="30.6024" x2="50.6745" y2="14.7184" gradientUnits="userSpaceOnUse">
<stop stop-color="white"/>
<stop offset="1" stop-color="white" stop-opacity="0"/>
</linearGradient>
<linearGradient id="paint1_linear_620_98" x1="-16.2932" y1="43.87" x2="34.0454" y2="8.67128" gradientUnits="userSpaceOnUse">
<stop stop-color="white"/>
<stop offset="1" stop-color="white" stop-opacity="0"/>
</linearGradient>
<linearGradient id="paint2_linear_620_98" x1="39.0897" y1="-5.38173" x2="14.4464" y2="23.3434" gradientUnits="userSpaceOnUse">
<stop stop-color="white"/>
<stop offset="1" stop-color="white" stop-opacity="0"/>
</linearGradient>
<linearGradient id="paint3_linear_620_98" x1="-2.34493" y1="37.4297" x2="46.0517" y2="3.71263" gradientUnits="userSpaceOnUse">
<stop stop-color="white"/>
<stop offset="1" stop-color="white" stop-opacity="0"/>
</linearGradient>
</defs>
</svg>
